<svg width="182" height="30" viewBox="0 0 182 30" fill="none" xmlns="http://www.w3.org/2000/svg">
<g clip-path="url(#clip0_0_8)">
<path d="M14.2625 15.2188C12.693 13.9664 10.8719 13.3047 8.99061 13.3047C4.7589 13.3047 1.17577 16.7363 0.0765526 21.8359C-0.114854 22.7449 0.0560448 23.6888 0.548232 24.427C1.02675 25.1445 1.74479 25.5547 2.51042 25.5547H32.375C26.7312 25.5547 23.8984 23.5242 19.6219 19.8399L14.2625 15.2188ZM27.0976 14.2234L25.614 5.66486C25.4567 4.7215 24.9167 3.88751 24.1308 3.35431C23.345 2.82111 22.3677 2.62696 21.438 2.82521L10.9867 5.04798C9.49921 5.36243 8.39452 6.59454 8.23046 8.09845L7.85311 11.6641C8.22909 11.6162 8.59796 11.5547 8.98788 11.5547C11.2776 11.5547 13.4723 12.3477 15.4082 13.8997L20.7676 18.5137C24.6504 21.8633 27.0621 23.8047 32.3723 23.8047C33.8215 23.8047 34.9973 22.6289 34.9973 21.1797C35 19.7906 33.3812 14.65 27.0976 14.2234Z" fill="black"/>
</g>
<path d="M51.075 10.275C51.075 8.95 51.7 8.325 52.85 8.325C53.45 8.325 54 8.5 54.425 8.8L55.45 5.975C54.725 5.475 53.575 5.25 52.475 5.25C49.125 5.25 47.275 7.225 47.275 10.25V10.85H45.2V13.85H47.275V24H51.175V13.85H54.525V10.85H51.075V10.275ZM61.6488 10.35C59.4988 10.35 57.3238 10.925 55.8488 11.975L57.2488 14.7C58.2238 13.925 59.6988 13.45 61.1238 13.45C63.2238 13.45 64.2238 14.425 64.2238 16.1H61.1238C57.0238 16.1 55.3488 17.75 55.3488 20.125C55.3488 22.45 57.2238 24.2 60.3738 24.2C62.3488 24.2 63.7488 23.55 64.4738 22.325V24H68.1238V16.325C68.1238 12.25 65.7488 10.35 61.6488 10.35ZM61.3488 21.575C59.9738 21.575 59.1488 20.925 59.1488 19.95C59.1488 19.05 59.7238 18.375 61.5488 18.375H64.2238V19.75C63.7738 20.975 62.6488 21.575 61.3488 21.575ZM75.3785 12.325V10.55H71.6535V24H75.5535V17.65C75.5535 15.075 76.9785 13.9 79.1285 13.9C79.4285 13.9 79.6785 13.925 80.0035 13.95V10.35C77.9285 10.35 76.3285 11.025 75.3785 12.325ZM99.5475 10.35C97.5225 10.35 95.7725 11.175 94.6975 12.55C93.7475 11.075 92.1475 10.35 90.2725 10.35C88.5475 10.35 87.0475 10.95 86.0475 12.1V10.55H82.3225V24H86.2225V17.25C86.2225 14.85 87.4475 13.725 89.1725 13.725C90.7975 13.725 91.7225 14.725 91.7225 16.9V24H95.6225V17.25C95.6225 14.85 96.8475 13.725 98.5975 13.725C100.172 13.725 101.147 14.725 101.147 16.9V24H105.047V16.3C105.047 12.2 102.747 10.35 99.5475 10.35ZM118.865 10.55V12.275C117.84 10.975 116.29 10.35 114.415 10.35C110.69 10.35 107.69 12.925 107.69 16.85C107.69 20.775 110.69 23.35 114.415 23.35C116.165 23.35 117.64 22.8 118.665 21.675V22.25C118.665 24.675 117.465 25.925 114.715 25.925C112.99 25.925 111.115 25.325 109.965 24.4L108.415 27.2C109.99 28.425 112.465 29.05 115.015 29.05C119.865 29.05 122.565 26.75 122.565 21.75V10.55H118.865ZM115.19 20.15C113.14 20.15 111.64 18.825 111.64 16.85C111.64 14.875 113.14 13.55 115.19 13.55C117.24 13.55 118.715 14.875 118.715 16.85C118.715 18.825 117.24 20.15 115.19 20.15ZM131.62 10.35C129.47 10.35 127.295 10.925 125.82 11.975L127.22 14.7C128.195 13.925 129.67 13.45 131.095 13.45C133.195 13.45 134.195 14.425 134.195 16.1H131.095C126.995 16.1 125.32 17.75 125.32 20.125C125.32 22.45 127.195 24.2 130.345 24.2C132.32 24.2 133.72 23.55 134.445 22.325V24H138.095V16.325C138.095 12.25 135.72 10.35 131.62 10.35ZM131.32 21.575C129.945 21.575 129.12 20.925 129.12 19.95C129.12 19.05 129.695 18.375 131.52 18.375H134.195V19.75C133.745 20.975 132.62 21.575 131.32 21.575ZM158.849 10.35C156.824 10.35 155.074 11.175 153.999 12.55C153.049 11.075 151.449 10.35 149.574 10.35C147.849 10.35 146.349 10.95 145.349 12.1V10.55H141.624V24H145.524V17.25C145.524 14.85 146.749 13.725 148.474 13.725C150.099 13.725 151.024 14.725 151.024 16.9V24H154.924V17.25C154.924 14.85 156.149 13.725 157.899 13.725C159.474 13.725 160.449 14.725 160.449 16.9V24H164.349V16.3C164.349 12.2 162.049 10.35 158.849 10.35ZM181.166 17.325C181.166 13 178.116 10.35 174.166 10.35C170.066 10.35 166.991 13.25 166.991 17.275C166.991 21.275 170.016 24.2 174.666 24.2C177.091 24.2 178.966 23.45 180.216 22.025L178.141 19.775C177.216 20.65 176.191 21.075 174.766 21.075C172.716 21.075 171.291 20.05 170.916 18.375H181.091C181.116 18.05 181.166 17.625 181.166 17.325ZM174.191 13.3C175.941 13.3 177.216 14.4 177.491 16.1H170.866C171.141 14.375 172.416 13.3 174.191 13.3Z" fill="black"/>
<defs>
<clipPath id="clip0_0_8">
<rect width="35" height="28" fill="white" transform="translate(0 1)"/>
</clipPath>
</defs>
</svg>
